# xmcd CD database file
#
# Track frame offsets:
#	150
#	20411
#	40934
#	61078
#	89688
#	111543
#	134331
#	155192
#	179969
#	198524
#	216860
#	252069
#	281067
#	305537
#
# Disc length: 4618 seconds
#
# Revision: 0
# Processed by: cddbd v1.5.1PL0 Copyright (c) Steve Scherf et al.
# Submitted via: CDex 1.51
#
DISCID=db12080e
DTITLE=CHAR/仲井戸"CHABO"麗市/近藤房之助/石田長生/大村憲司/ALAN MIRIKITANI/西慎嗣/ichiro/山岸潤史 - Lightning Blues Guitar 江戸屋百歌撰　"子"
DYEAR=1996
DGENRE=Blues
TTITLE0=ME - 近藤房之助
TTITLE1=CROSS TO BEAR - ALAN MIRIKITANI
TTITLE2=EMNEY'S - ichiro
TTITLE3=BIG CHIEF - 山岸潤史
TTITLE4=HORSE RADISH - 大村憲司
TTITLE5=OSYOKU(汚職) - 石田長生
TTITLE6=GOING DOWN - 仲井戸"CHABO"麗市
TTITLE7=SUNSET BLUES - CHAR
TTITLE8=JESUS COMING SOON - 西慎嗣
TTITLE9=ONE WAY OUT - 近藤房之助×山岸潤史×CHAR
TTITLE10=IWANNA TA-TA YOU BABY - 山岸潤史×西慎嗣
TTITLE11=ROCK ME BABY - 大村憲司×石田長生×山岸潤史
TTITLE12=LOVE YOU CAN'T BABY - 西慎嗣
TTITLE13=DOUBLE TROUBLE - 近藤房之助×CHAR×石田長生
EXTD=YEAR: 1996
EXTT0=
EXTT1=
EXTT2=
EXTT3=
EXTT4=
EXTT5=
EXTT6=
EXTT7=
EXTT8=
EXTT9=
EXTT10=
EXTT11=
EXTT12=
EXTT13=
PLAYORDER=
